<svg version="1.1" viewBox="0.0 0.0 100.0 100.0" fill="none" stroke="none" stroke-linecap="square" stroke-miterlimit="10" xmlns:xlink="http://www.w3.org/1999/xlink" xmlns="http://www.w3.org/2000/svg"><clipPath id="p.0"><path d="m0 0l100.0 0l0 100.0l-100.0 0l0 -100.0z" clip-rule="nonzero"/></clipPath><g clip-path="url(#p.0)"><path fill="#000000" fill-opacity="0.0" d="m0 0l100.0 0l0 100.0l-100.0 0z" fill-rule="evenodd"/><path fill="#b7b7b7" d="m85.338585 50.0l0 0l0 0c0 9.3723755 -3.7231674 18.360878 -10.350433 24.988152c-6.6272736 6.627266 -15.615776 10.350433 -24.988152 10.350433l-36.440945 0c-3.2520294E-4 0 -5.893707E-4 -2.670288E-4 -5.893707E-4 -5.874634E-4l5.893707E-4 -70.67658l0 0c0 -3.2520294E-4 2.632141E-4 -5.8841705E-4 5.8841705E-4 -5.8841705E-4l36.440357 5.8841705E-4l0 0c19.51696 0 35.338585 15.821623 35.338585 35.338585z" fill-rule="evenodd"/><path stroke="#000000" stroke-width="4.0" stroke-linejoin="round" stroke-linecap="butt" d="m85.338585 50.0l0 0l0 0c0 9.3723755 -3.7231674 18.360878 -10.350433 24.988152c-6.6272736 6.627266 -15.615776 10.350433 -24.988152 10.350433l-36.440945 0c-3.2520294E-4 0 -5.893707E-4 -2.670288E-4 -5.893707E-4 -5.874634E-4l5.893707E-4 -70.67658l0 0c0 -3.2520294E-4 2.632141E-4 -5.8841705E-4 5.8841705E-4 -5.8841705E-4l36.440357 5.8841705E-4l0 0c19.51696 0 35.338585 15.821623 35.338585 35.338585z" fill-rule="evenodd"/></g></svg>