<svg version="1.1" viewBox="0.0 0.0 100.0 100.0" fill="none" stroke="none" stroke-linecap="square" stroke-miterlimit="10" xmlns:xlink="http://www.w3.org/1999/xlink" xmlns="http://www.w3.org/2000/svg"><clipPath id="p.0"><path d="m0 0l100.0 0l0 100.0l-100.0 0l0 -100.0z" clip-rule="nonzero"/></clipPath><g clip-path="url(#p.0)"><path fill="#000000" fill-opacity="0.0" d="m0 0l100.0 0l0 100.0l-100.0 0z" fill-rule="evenodd"/><path fill="#ea9999" d="m36.28271 81.50007l-17.784636 -17.784637c-0.9369793 -0.9369774 -1.4633675 -2.2077942 -1.4633675 -3.5328789c0 -1.3250885 0.52638817 -2.5959015 1.4633675 -3.5328789l17.663969 -17.66397c1.1444092E-4 -1.1444092E-4 3.0136108E-4 -1.1444092E-4 4.15802E-4 0l24.84998 24.850391l0 0c1.1444092E-4 1.1444092E-4 1.1444092E-4 3.0136108E-4 0 4.15802E-4l-17.66397 17.663559l0 0c-1.9511566 1.9511566 -5.114605 1.9511566 -7.0657578 0z" fill-rule="evenodd"/><path stroke="#000000" stroke-width="2.0" stroke-linejoin="round" stroke-linecap="butt" d="m36.28271 81.50007l-17.784636 -17.784637c-0.9369793 -0.9369774 -1.4633675 -2.2077942 -1.4633675 -3.5328789c0 -1.3250885 0.52638817 -2.5959015 1.4633675 -3.5328789l17.663969 -17.66397c1.1444092E-4 -1.1444092E-4 3.0136108E-4 -1.1444092E-4 4.15802E-4 0l24.84998 24.850391l0 0c1.1444092E-4 1.1444092E-4 1.1444092E-4 3.0136108E-4 0 4.15802E-4l-17.66397 17.663559l0 0c-1.9511566 1.9511566 -5.114605 1.9511566 -7.0657578 0z" fill-rule="evenodd"/><path fill="#d9d9d9" d="m64.09903 18.946411l16.955223 16.95522l0 0c1.0553207 1.0553207 1.6481934 2.486637 1.6481934 3.979084c0 1.4924469 -0.5928726 2.9237633 -1.6481934 3.979084l-19.894932 19.894932c-1.1444092E-4 1.1444092E-4 -3.0136108E-4 1.1444092E-4 -4.15802E-4 0l-24.912971 -24.913387l0 0c-1.1444092E-4 -1.1444092E-4 -1.1444092E-4 -2.975464E-4 0 -4.119873E-4l19.894936 -19.89452l0 0c2.197586 -2.197586 5.760578 -2.197586 7.9581604 0z" fill-rule="evenodd"/><path stroke="#000000" stroke-width="2.0" stroke-linejoin="round" stroke-linecap="butt" d="m64.09903 18.946411l16.955223 16.95522l0 0c1.0553207 1.0553207 1.6481934 2.486637 1.6481934 3.979084c0 1.4924469 -0.5928726 2.9237633 -1.6481934 3.979084l-19.894932 19.894932c-1.1444092E-4 1.1444092E-4 -3.0136108E-4 1.1444092E-4 -4.15802E-4 0l-24.912971 -24.913387l0 0c-1.1444092E-4 -1.1444092E-4 -1.1444092E-4 -2.975464E-4 0 -4.119873E-4l19.894936 -19.89452l0 0c2.197586 -2.197586 5.760578 -2.197586 7.9581604 0z" fill-rule="evenodd"/><path fill="#000000" fill-opacity="0.0" d="m19.573317 83.69151l59.401573 0" fill-rule="evenodd"/><path stroke="#000000" stroke-width="4.0" stroke-linejoin="round" stroke-linecap="butt" d="m19.573317 83.69151l59.401573 0" fill-rule="evenodd"/></g></svg>