<svg version="1.1" viewBox="0.0 0.0 100.0 100.0" fill="none" stroke="none" stroke-linecap="square" stroke-miterlimit="10" xmlns:xlink="http://www.w3.org/1999/xlink" xmlns="http://www.w3.org/2000/svg"><clipPath id="p.0"><path d="m0 0l100.0 0l0 100.0l-100.0 0l0 -100.0z" clip-rule="nonzero"/></clipPath><g clip-path="url(#p.0)"><path fill="#000000" fill-opacity="0.0" d="m0 0l100.0 0l0 100.0l-100.0 0z" fill-rule="evenodd"/><path fill="#b7b7b7" d="m11.148865 14.677412l61.133858 35.322838l-61.133858 35.322834z" fill-rule="evenodd"/><path stroke="#000000" stroke-width="4.0" stroke-linejoin="round" stroke-linecap="butt" d="m11.148865 14.677412l61.133858 35.322838l-61.133858 35.322834z" fill-rule="evenodd"/><path fill="#b7b7b7" d="m72.28346 50.0l0 0c0 -4.574833 3.7086334 -8.283466 8.28347 -8.283466l0 0c2.196907 0 4.3038406 0.8727226 5.857292 2.4261742c1.5534515 1.5534477 2.4261703 3.6603813 2.4261703 5.857292l0 0c0 4.574833 -3.7086334 8.283466 -8.283463 8.283466l0 0c-4.5748367 0 -8.28347 -3.7086334 -8.28347 -8.283466z" fill-rule="evenodd"/><path stroke="#000000" stroke-width="4.0" stroke-linejoin="round" stroke-linecap="butt" d="m72.28346 50.0l0 0c0 -4.574833 3.7086334 -8.283466 8.28347 -8.283466l0 0c2.196907 0 4.3038406 0.8727226 5.857292 2.4261742c1.5534515 1.5534477 2.4261703 3.6603813 2.4261703 5.857292l0 0c0 4.574833 -3.7086334 8.283466 -8.283463 8.283466l0 0c-4.5748367 0 -8.28347 -3.7086334 -8.28347 -8.283466z" fill-rule="evenodd"/></g></svg>