<svg version="1.1" viewBox="0.0 0.0 100.0 100.0" fill="none" stroke="none" stroke-linecap="square" stroke-miterlimit="10" xmlns:xlink="http://www.w3.org/1999/xlink" xmlns="http://www.w3.org/2000/svg"><clipPath id="p.0"><path d="m0 0l100.0 0l0 100.0l-100.0 0l0 -100.0z" clip-rule="nonzero"/></clipPath><g clip-path="url(#p.0)"><path fill="#000000" fill-opacity="0.0" d="m0 0l100.0 0l0 100.0l-100.0 0z" fill-rule="evenodd"/><path fill="#b7b7b7" d="m15.700788 14.724409l0 0c37.885864 0 68.59842 15.793421 68.59842 35.27559c0 19.48217 -30.712559 35.27559 -68.59842 35.27559l0 0c19.539577 -22.443794 19.539577 -48.107384 0 -70.55118z" fill-rule="evenodd"/><path stroke="#000000" stroke-width="4.0" stroke-linejoin="round" stroke-linecap="butt" d="m15.700788 14.724409l0 0c37.885864 0 68.59842 15.793421 68.59842 35.27559c0 19.48217 -30.712559 35.27559 -68.59842 35.27559l0 0c19.539577 -22.443794 19.539577 -48.107384 0 -70.55118z" fill-rule="evenodd"/><path fill="#b7b7b7" d="m51.627296 14.724409l0 16.566929l-35.937008 -16.566929z" fill-rule="evenodd"/><path stroke="#000000" stroke-width="4.0" stroke-linejoin="round" stroke-linecap="butt" d="m51.627296 14.724409l0 16.566929l-35.937008 -16.566929z" fill-rule="evenodd"/><path fill="#b7b7b7" d="m51.64042 85.27559l0 -16.566925l-35.937008 16.566925z" fill-rule="evenodd"/><path stroke="#000000" stroke-width="4.0" stroke-linejoin="round" stroke-linecap="butt" d="m51.64042 85.27559l0 -16.566925l-35.937008 16.566925z" fill-rule="evenodd"/><path fill="#b7b7b7" d="m50.490814 14.614173l0 0c12.73801 0 24.502113 6.7862864 30.836685 17.788574c6.334564 11.002289 6.2709656 24.53817 -0.16673279 35.480972c-6.4376907 10.942802 -18.265049 17.61921 -31.002506 17.500557l0.33255386 -35.384277z" fill-rule="evenodd"/><path stroke="#000000" stroke-width="4.0" stroke-linejoin="round" stroke-linecap="butt" d="m50.490814 14.614173l0 0c12.73801 0 24.502113 6.7862864 30.836685 17.788574c6.334564 11.002289 6.2709656 24.53817 -0.16673279 35.480972c-6.4376907 10.942802 -18.265049 17.61921 -31.002506 17.500557l0.33255386 -35.384277z" fill-rule="evenodd"/><path fill="#b7b7b7" d="m52.67454 17.115486l0 38.330708l-32.472443 -38.330708z" fill-rule="evenodd"/><path stroke="#b7b7b7" stroke-width="1.0" stroke-linejoin="round" stroke-linecap="butt" d="m52.67454 17.115486l0 38.330708l-32.472443 -38.330708z" fill-rule="evenodd"/><path fill="#b7b7b7" d="m52.67454 82.83202l0 -38.33071l-32.472443 38.33071z" fill-rule="evenodd"/><path stroke="#b7b7b7" stroke-width="1.0" stroke-linejoin="round" stroke-linecap="butt" d="m52.67454 82.83202l0 -38.33071l-32.472443 38.33071z" fill-rule="evenodd"/></g></svg>