<svg version="1.1" viewBox="0.0 0.0 100.0 100.0" fill="none" stroke="none" stroke-linecap="square" stroke-miterlimit="10" xmlns:xlink="http://www.w3.org/1999/xlink" xmlns="http://www.w3.org/2000/svg"><clipPath id="p.0"><path d="m0 0l100.0 0l0 100.0l-100.0 0l0 -100.0z" clip-rule="nonzero"/></clipPath><g clip-path="url(#p.0)"><path fill="#000000" fill-opacity="0.0" d="m0 0l100.0 0l0 100.0l-100.0 0z" fill-rule="evenodd"/><path fill="#b7b7b7" d="m89.17986 50.0l-4.897644 -4.8976364l0 0c-16.22934 -16.229345 -42.542305 -16.229345 -58.771652 0l0 0l-4.8976383 -4.89764l0 19.590553l19.59055 0l-4.8976364 -4.8976364l0 0l0 0c10.819565 -10.819565 28.361542 -10.819565 39.181103 0l4.8976364 4.8976364z" fill-rule="evenodd"/><path stroke="#000000" stroke-width="4.0" stroke-linejoin="round" stroke-linecap="butt" d="m89.17986 50.0l-4.897644 -4.8976364l0 0c-16.22934 -16.229345 -42.542305 -16.229345 -58.771652 0l0 0l-4.8976383 -4.89764l0 19.590553l19.59055 0l-4.8976364 -4.8976364l0 0l0 0c10.819565 -10.819565 28.361542 -10.819565 39.181103 0l4.8976364 4.8976364z" fill-rule="evenodd"/></g></svg>