<svg version="1.1" viewBox="0.0 0.0 100.0 100.0" fill="none" stroke="none" stroke-linecap="square" stroke-miterlimit="10" xmlns:xlink="http://www.w3.org/1999/xlink" xmlns="http://www.w3.org/2000/svg"><clipPath id="p.0"><path d="m0 0l100.0 0l0 100.0l-100.0 0l0 -100.0z" clip-rule="nonzero"/></clipPath><g clip-path="url(#p.0)"><path fill="#000000" fill-opacity="0.0" d="m0 0l100.0 0l0 100.0l-100.0 0z" fill-rule="evenodd"/><path fill="#b7b7b7" d="m24.475065 43.475895l12.763781 0l0 28.551182l25.527557 0l0 -28.551182l12.763779 0l-25.527557 -25.527557z" fill-rule="evenodd"/><path stroke="#000000" stroke-width="4.0" stroke-linejoin="round" stroke-linecap="butt" d="m24.475065 43.475895l12.763781 0l0 28.551182l25.527557 0l0 -28.551182l12.763779 0l-25.527557 -25.527557z" fill-rule="evenodd"/><path fill="#000000" fill-opacity="0.0" d="m17.82677 80.11811l64.34645 0" fill-rule="evenodd"/><path stroke="#000000" stroke-width="4.0" stroke-linejoin="round" stroke-linecap="butt" d="m17.82677 80.11811l64.34645 0" fill-rule="evenodd"/><path fill="#000000" fill-opacity="0.0" d="m80.50196 82.05249l0 -16.377953" fill-rule="evenodd"/><path stroke="#000000" stroke-width="4.0" stroke-linejoin="round" stroke-linecap="butt" d="m80.50196 82.05249l0 -16.377953" fill-rule="evenodd"/><path fill="#000000" fill-opacity="0.0" d="m19.503286 82.05249l0 -16.377953" fill-rule="evenodd"/><path stroke="#000000" stroke-width="4.0" stroke-linejoin="round" stroke-linecap="butt" d="m19.503286 82.05249l0 -16.377953" fill-rule="evenodd"/></g></svg>