<svg version="1.1" viewBox="0.0 0.0 100.0 100.0" fill="none" stroke="none" stroke-linecap="square" stroke-miterlimit="10" xmlns:xlink="http://www.w3.org/1999/xlink" xmlns="http://www.w3.org/2000/svg"><clipPath id="p.0"><path d="m0 0l100.0 0l0 100.0l-100.0 0l0 -100.0z" clip-rule="nonzero"/></clipPath><g clip-path="url(#p.0)"><path fill="#000000" fill-opacity="0.0" d="m0 0l100.0 0l0 100.0l-100.0 0z" fill-rule="evenodd"/><path fill="#000000" fill-opacity="0.0" d="m16.535433 83.46457l66.92914 -66.92914" fill-rule="evenodd"/><path stroke="#000000" stroke-width="4.0" stroke-linejoin="round" stroke-linecap="butt" d="m27.255173 72.74483l45.489655 -45.489655" fill-rule="evenodd"/><path fill="#000000" stroke="#000000" stroke-width="4.0" stroke-linecap="butt" d="m17.949646 82.050354c-2.5696487 -2.5696487 -2.5696487 -6.735878 0 -9.305527c2.5696507 -2.5696487 6.735876 -2.5696487 9.305525 0c2.5696507 2.5696487 2.5696507 6.735878 0 9.305527c-2.5696487 2.5696487 -6.735874 2.5696487 -9.305525 0z" fill-rule="nonzero"/><path fill="#000000" stroke="#000000" stroke-width="4.0" stroke-linecap="butt" d="m82.050354 17.949646c2.5696487 2.5696507 2.5696487 6.735876 0 9.305525c-2.5696487 2.5696507 -6.735878 2.5696507 -9.305527 0c-2.5696487 -2.5696487 -2.5696487 -6.735874 0 -9.305525c2.5696487 -2.5696487 6.735878 -2.5696487 9.305527 0z" fill-rule="nonzero"/></g></svg>